<svg width="42" height="42" viewBox="0 0 42 42" fill="none" xmlns="http://www.w3.org/2000/svg">
<path d="M36.2103 4.55273H6.75117C6.04271 4.55273 5.47034 5.12511 5.47034 5.83357V35.2927C5.47034 36.0011 6.04271 36.5735 6.75117 36.5735H36.2103C36.9187 36.5735 37.4911 36.0011 37.4911 35.2927V5.83357C37.4911 5.12511 36.9187 4.55273 36.2103 4.55273ZM32.5119 13.8988H29.9542C27.9489 13.8988 27.5607 14.8514 27.5607 16.2523V19.3383H32.3478L31.7234 24.1695H27.5607V36.5735H22.5694V24.1735H18.3947V19.3383H22.5694V15.776C22.5694 11.6413 25.0951 9.38787 28.7855 9.38787C30.5546 9.38787 32.0716 9.51996 32.5159 9.58V13.8988H32.5119Z" fill="white"/>
</svg>
