<svg width="42" height="42" viewBox="0 0 42 42" fill="none" xmlns="http://www.w3.org/2000/svg">
<path d="M36.1981 4.55273H6.73896C6.0305 4.55273 5.45813 5.12511 5.45813 5.83357V35.2927C5.45813 36.0011 6.0305 36.5735 6.73896 36.5735H36.1981C36.9065 36.5735 37.4789 36.0011 37.4789 35.2927V5.83357C37.4789 5.12511 36.9065 4.55273 36.1981 4.55273ZM14.9563 31.8384H10.2052V16.5565H14.9563V31.8384ZM12.5828 14.4672C12.0381 14.4672 11.5057 14.3057 11.0528 14.0031C10.6 13.7005 10.247 13.2704 10.0386 12.7672C9.83016 12.264 9.77562 11.7103 9.88188 11.1761C9.98813 10.642 10.2504 10.1513 10.6355 9.76616C11.0207 9.38104 11.5113 9.11876 12.0455 9.01251C12.5797 8.90625 13.1334 8.96079 13.6366 9.16921C14.1398 9.37764 14.5699 9.7306 14.8724 10.1835C15.175 10.6363 15.3365 11.1687 15.3365 11.7134C15.3325 13.2344 14.0997 14.4672 12.5828 14.4672ZM32.7438 31.8384H27.9968V24.4056C27.9968 22.6325 27.9647 20.355 25.5272 20.355C23.0576 20.355 22.6773 22.2842 22.6773 24.2775V31.8384H17.9342V16.5565H22.4892V18.6459H22.5532C23.1856 17.4451 24.7346 16.1763 27.0481 16.1763C31.8593 16.1763 32.7438 19.3423 32.7438 23.457V31.8384Z" fill="white"/>
</svg>
