<svg width="46" height="47" viewBox="0 0 46 47" fill="none" xmlns="http://www.w3.org/2000/svg">
<path d="M23 26.9036C27.2282 26.9036 30.6667 23.4651 30.6667 19.237C30.6667 15.0088 27.2282 11.5703 23 11.5703C18.7719 11.5703 15.3334 15.0088 15.3334 19.237C15.3334 23.4651 18.7719 26.9036 23 26.9036ZM23 15.4036C25.1141 15.4036 26.8334 17.1229 26.8334 19.237C26.8334 21.3511 25.1141 23.0703 23 23.0703C20.886 23.0703 19.1667 21.3511 19.1667 19.237C19.1667 17.1229 20.886 15.4036 23 15.4036Z" fill="black"/>
<path d="M21.8885 41.8802C22.2129 42.1118 22.6015 42.2363 23.0001 42.2363C23.3987 42.2363 23.7874 42.1118 24.1118 41.8802C24.6945 41.4681 38.389 31.58 38.3335 19.2367C38.3335 10.7822 31.4545 3.90332 23.0001 3.90332C14.5457 3.90332 7.66679 10.7822 7.66679 19.2271C7.61121 31.58 21.3058 41.4681 21.8885 41.8802ZM23.0001 7.73665C29.3424 7.73665 34.5001 12.8944 34.5001 19.2462C34.5404 27.7524 26.0898 35.3903 23.0001 37.8954C19.9124 35.3884 11.4599 27.7486 11.5001 19.2367C11.5001 12.8944 16.6579 7.73665 23.0001 7.73665Z" fill="white"/>
</svg>
