<svg width="41" height="42" viewBox="0 0 41 42" fill="none" xmlns="http://www.w3.org/2000/svg">
<path d="M37.145 10.2493C35.9202 10.7776 34.5873 11.1578 33.2144 11.3059C34.6398 10.4591 35.7072 9.12132 36.2164 7.5435C34.8788 8.33918 33.4136 8.89712 31.8855 9.19257C31.2469 8.50984 30.4745 7.96594 29.6165 7.59477C28.7585 7.2236 27.8332 7.03311 26.8983 7.03517C23.1159 7.03517 20.0739 10.1012 20.0739 13.8636C20.0739 14.3919 20.1379 14.9203 20.242 15.4286C14.5783 15.1324 9.52705 12.4267 6.16887 8.28398C5.55697 9.32912 5.23632 10.5191 5.24026 11.7302C5.24026 14.0998 6.44505 16.1891 8.28224 17.4179C7.19955 17.3753 6.14222 17.0777 5.19624 16.5493V16.6334C5.19624 19.9516 7.54176 22.7013 10.6678 23.3337C10.0808 23.4862 9.47704 23.5642 8.87062 23.5659C8.42633 23.5659 8.00606 23.5219 7.58178 23.4618C8.44634 26.1676 10.964 28.1329 13.9619 28.1969C11.6164 30.0341 8.67849 31.1148 5.48843 31.1148C4.91605 31.1148 4.38771 31.0948 3.83936 31.0307C6.86532 32.972 10.4556 34.0927 14.3222 34.0927C26.8743 34.0927 33.7428 23.694 33.7428 14.6681C33.7428 14.3719 33.7428 14.0757 33.7227 13.7795C35.0516 12.8069 36.2164 11.6021 37.145 10.2493Z" fill="white"/>
</svg>
